# xmcd CD database file
#
# Track frame offsets:
#	183
#	12240
#	25575
#	40328
#	53390
#	68923
#	79960
#	94625
#	105148
#	119740
#	131985
#	143088
#	154883
#	168828
#	179195
#	191225
#	208673
#	222118
#	240138
#	255358
#
# Disc length: 3560 seconds
#
# Revision: 4
# Processed by: cddbd v1.4PL0 Copyright (c) Steve Scherf et al.
# Submitted via: CDex 1.50beta10
#
DISCID=0f0de614
DTITLE=The Mamas and Papas - The EP Collection
DYEAR=1992
DGENRE=Pop
TTITLE0=California Deamin'
TTITLE1=Straight Shooter
TTITLE2=Somebody Groovy
TTITLE3=Got A Feeling
TTITLE4=Monday Monday
TTITLE5=Hey Girl
TTITLE6=The In Crowd
TTITLE7=You Baby
TTITLE8=I Saw Her Again Last Night
TTITLE9=Even If I Could
TTITLE10=Go Where You Wanna Go
TTITLE11=I Call Your Name
TTITLE12=Look Through My Window
TTITLE13=Words Of Love
TTITLE14=Trip, Stumble And Fall
TTITLE15=Dancing In The Street
TTITLE16=Dedicated To The One I Love
TTITLE17=I Can't Wait
TTITLE18=Free Advice
TTITLE19=That Of Girl
EXTD=YEAR: 1992
EXTT0=
EXTT1=
EXTT2=\n\n\n\n
EXTT3=
EXTT4=
EXTT5=
EXTT6=
EXTT7=
EXTT8=
EXTT9=
EXTT10=
EXTT11=
EXTT12=
EXTT13=
EXTT14=
EXTT15=
EXTT16=
EXTT17=
EXTT18=
EXTT19=
PLAYORDER=
